<svg id="Capa_1" data-name="Capa 1" xmlns="http://www.w3.org/2000/svg" viewBox="0 0 882.03 1027.49"><defs><style>.cls-1{fill:#07f9a2;}</style></defs><path class="cls-1" d="M588.13,1057.82H129.37q-32.45,0-32.45-32.44V63.08q0-32.46,32.45-32.45h139.7q32.44,0,32.45,32.45v824.4H425v-146Q425,709,457.44,709H588.13q32.45,0,32.45,32.44v283.92Q620.58,1057.82,588.13,1057.82Z" transform="translate(-96.92 -30.63)"/><path class="cls-1" d="M615.72,647.26q0,32.44-32.44,32.45H450.78q-32.44,0-32.44-32.45V409.32q0-27,8.56-62.19t26.59-82L531.9,60.51q9.92-29.74,46-29.74H820.32q35.14,0,45.06,29.74l78.42,204.6q18,46.88,26.59,82T979,409.32v616.35q0,32.44-32.45,32.45H810.4q-35.14,0-35.15-32.45V521.08H615.72ZM667.1,220,624.74,357h141.5L723.88,220q-6.32-15.31-17.13-15.32H684.22Q673.41,204.72,667.1,220Z" transform="translate(-96.92 -30.63)"/></svg>